# xmcd
# 
# Track frame offsets:
#     150
#     14701
#     28528
#     49320
#     62588
#     77588
#     87299
#     104182
#     122368
#     141198
#     158602
# 
# Disc length: 2307
# 
# Revision: 0
# Processed by: cddbd v1.5.2PL0 Copyright (c) Steve Scherf et al.
# Submitted via: fre:ac v1.1beta1pre4
# 
DISCID=8c09010b
DTITLE=Natural Facts - Blues and Ragtime
DYEAR=2014
DGENRE=Blues
TTITLE0=Police Sergeant Blues
TTITLE1=Charles Rag
TTITLE2=Mobile and Western Blues
TTITLE3=After While
TTITLE4=Saturday Blues
TTITLE5=Reconstruction Blues
TTITLE6=Black Rat Blues
TTITLE7=Morning Train
TTITLE8=Everybody's Crying Mercy
TTITLE9=New Stockyard Blues
TTITLE10=Moaning The Blues
EXTD=
EXTT0=
EXTT1=
EXTT2=
EXTT3=
EXTT4=
EXTT5=
EXTT6=
EXTT7=
EXTT8=
EXTT9=
EXTT10=
PLAYORDER=
